<svg id="Layer_1" data-name="Layer 1" xmlns="http://www.w3.org/2000/svg" xmlns:xlink="http://www.w3.org/1999/xlink" viewBox="0 0 384.56 403.84"><defs><radialGradient id="radial-gradient" cx="204.64" cy="316.96" r="82.88" gradientUnits="userSpaceOnUse"><stop offset="0.34" stop-color="#fff"/><stop offset="1" stop-color="#fff" stop-opacity="0.39"/></radialGradient><linearGradient id="linear-gradient" x1="240.09" y1="132.58" x2="219.8" y2="170.63" gradientUnits="userSpaceOnUse"><stop offset="0.01"/><stop offset="0.13" stop-opacity="0.69"/><stop offset="1" stop-opacity="0"/></linearGradient><linearGradient id="linear-gradient-2" x1="240.06" y1="231.75" x2="288.56" y2="231.75" xlink:href="#linear-gradient"/><linearGradient id="linear-gradient-3" x1="171.13" y1="240.68" x2="263.89" y2="162.89" xlink:href="#linear-gradient"/><linearGradient id="linear-gradient-4" x1="232.39" y1="156.53" x2="225.65" y2="183.46" gradientUnits="userSpaceOnUse"><stop offset="0" stop-color="#e5c5d5"/><stop offset="0.42" stop-color="#ead4d1"/><stop offset="1" stop-color="#f0e9cb"/></linearGradient><linearGradient id="linear-gradient-5" x1="258.88" y1="113.9" x2="210.79" y2="129.29" xlink:href="#linear-gradient-4"/><linearGradient id="linear-gradient-6" x1="200.34" y1="252.94" x2="137.93" y2="161.04" xlink:href="#linear-gradient"/><linearGradient id="linear-gradient-7" x1="294.24" y1="308.84" x2="266.02" y2="330.21" xlink:href="#linear-gradient-4"/><linearGradient id="linear-gradient-8" x1="205.14" y1="293.44" x2="209.63" y2="258.82" xlink:href="#linear-gradient"/><linearGradient id="linear-gradient-9" x1="182.65" y1="230.55" x2="183.3" y2="313.27" xlink:href="#linear-gradient"/><linearGradient id="linear-gradient-10" x1="205.18" y1="414.48" x2="139.78" y2="301.63" xlink:href="#linear-gradient"/><linearGradient id="linear-gradient-11" x1="214.34" y1="377.72" x2="262.43" y2="321.94" xlink:href="#linear-gradient"/><linearGradient id="linear-gradient-12" x1="246.4" y1="118.81" x2="252.7" y2="118.81" xlink:href="#linear-gradient-4"/><linearGradient id="linear-gradient-13" x1="141.83" y1="326.27" x2="132.21" y2="394.88" xlink:href="#linear-gradient"/><linearGradient id="linear-gradient-14" x1="274.09" y1="348.56" x2="267.03" y2="398.97" xlink:href="#linear-gradient"/><linearGradient id="linear-gradient-15" x1="110.2" y1="336.36" x2="202.59" y2="336.36" xlink:href="#linear-gradient"/><linearGradient id="linear-gradient-16" x1="179.18" y1="267.11" x2="178.54" y2="246.28" xlink:href="#linear-gradient-4"/><linearGradient id="linear-gradient-17" x1="215.24" y1="240.41" x2="115.64" y2="138.68" xlink:href="#linear-gradient"/></defs><title>Princess</title><circle cx="192.28" cy="192.28" r="192.28" fill="#68e1fd" opacity="0.18" style="isolation:isolate"/><circle cx="195.84" cy="188.72" r="148.76" fill="#68e1fd" opacity="0.18" style="isolation:isolate"/><path d="M244.7,293l28.38,76.12c3.58,9.61,7.18,19.27,9.07,29.35a4,4,0,0,1-.31,3.13,3.89,3.89,0,0,1-2.48,1.17c-34.81,6.93-70.57-7.32-106-4.7-13.6,1-27.73,4.43-40.53-.26-2.06-.75-4.2-1.86-5.1-3.86a9.14,9.14,0,0,1-.58-3.45,269.44,269.44,0,0,1,7-72.7c2-8.64,4.55-17.27,8.89-25,13.7-24.41,44-37.4,53.71-63.65-.88,2.39,18.23,10.72,20.35,11.48,5.26,1.91,12.84,2.13,16.16,7.31,3.15,4.92,2.18,12.8,3.19,18.31C238.18,275.48,241.44,284.31,244.7,293Z" transform="translate(-28.79 -0.89)" fill="#68e1fd"/><path d="M244.7,293l28.38,76.12c3.58,9.61,7.18,19.27,9.07,29.35a4,4,0,0,1-.31,3.13,3.89,3.89,0,0,1-2.48,1.17c-34.81,6.93-70.57-7.32-106-4.7-13.6,1-27.73,4.43-40.53-.26-2.06-.75-4.2-1.86-5.1-3.86a9.14,9.14,0,0,1-.58-3.45,269.44,269.44,0,0,1,7-72.7c2-8.64,4.55-17.27,8.89-25,13.7-24.41,44-37.4,53.71-63.65-.88,2.39,18.23,10.72,20.35,11.48,5.26,1.91,12.84,2.13,16.16,7.31,3.15,4.92,2.18,12.8,3.19,18.31C238.18,275.48,241.44,284.31,244.7,293Z" transform="translate(-28.79 -0.89)" opacity="0.69" fill="url(#radial-gradient)" style="isolation:isolate"/><path d="M190.24,272.26a99.74,99.74,0,0,0,10.45,7.07,20,20,0,0,0,7,2.88,21.61,21.61,0,0,0,7.62-.64c3.92-.81,7.83-1.65,11.73-2.57a18.09,18.09,0,0,0,6.09-2.29,6.43,6.43,0,0,0,3-5.46c-.15-2.17-2.28-4.19-4.41-3.71a8.08,8.08,0,0,0-2.64,1.46c-3.93,2.69-8.85,3.41-13.59,3.9-3.15.33-6.41.57-9.43-.41-3.51-1.15-6.27-3.83-8.91-6.42-3.15-3.11-10.92-14.53-15-8.69C178.58,262.54,186.86,269.66,190.24,272.26Z" transform="translate(-28.79 -0.89)" fill="#68e1fd"/><path d="M206.76,85.34c-1.81,2.15-5.37,1.66-7.11,3.86s-2.92,4.8-4.59,7.06-4,4.33-5.36,6.94c-2.92,5.71-.15,13.23,5.15,16.84,2.12,1.45,4.71,2.53,5.86,4.82a10.24,10.24,0,0,1,.82,3.15c.74,4.93,1.36,10.43-1.52,14.5-1.74,2.45-4.48,4-6.68,6-6.46,6-7.63,16.39-3.85,24.32s11.7,13.39,20.2,15.61c5.43,1.41,11.42,1.79,15.78,5.31,2.38,1.92,4,4.6,6.24,6.68,3.23,3,7.52,4.64,11.79,5.77s9.43,1.78,13.26-.69c6.17-4,5.88-13.4,10.91-18.74,4.57-4.82,12.94-5.66,15.8-11.65,2.17-4.53.06-9.91-2.49-14.23a69.45,69.45,0,0,0-8.27-11.23c-3.48-3.85-7.73-8.45-6.33-13.45,1.22-4.32,6.1-6.39,8.81-10a13.63,13.63,0,0,0,2-11.5,21.63,21.63,0,0,0-6.31-10.12c-2.37-2.26-5.17-4.24-6.65-7.17s-1.39-6.36-2-9.58a22,22,0,0,0-3.61-8.49C257.49,77.81,220.91,68.54,206.76,85.34Z" transform="translate(-28.79 -0.89)" fill="#161419"/><path d="M206.76,85.34c-1.81,2.15-5.37,1.66-7.11,3.86s-2.92,4.8-4.59,7.06-4,4.33-5.36,6.94c-2.92,5.71-.15,13.23,5.15,16.84,2.12,1.45,4.71,2.53,5.86,4.82a10.24,10.24,0,0,1,.82,3.15c.74,4.93,1.36,10.43-1.52,14.5-1.74,2.45-4.48,4-6.68,6-6.46,6-7.63,16.39-3.85,24.32s11.7,13.39,20.2,15.61c5.43,1.41,11.42,1.79,15.78,5.31,2.38,1.92,4,4.6,6.24,6.68,3.23,3,7.52,4.64,11.79,5.77s9.43,1.78,13.26-.69c6.17-4,5.88-13.4,10.91-18.74,4.57-4.82,12.94-5.66,15.8-11.65,2.17-4.53.06-9.91-2.49-14.23a69.45,69.45,0,0,0-8.27-11.23c-3.48-3.85-7.73-8.45-6.33-13.45,1.22-4.32,6.1-6.39,8.81-10a13.63,13.63,0,0,0,2-11.5,21.63,21.63,0,0,0-6.31-10.12c-2.37-2.26-5.17-4.24-6.65-7.17s-1.39-6.36-2-9.58a22,22,0,0,0-3.61-8.49C257.49,77.81,220.91,68.54,206.76,85.34Z" transform="translate(-28.79 -0.89)" fill="url(#linear-gradient)"/><path d="M248.12,159.68c6.06,1.93,12.45,4.08,16.52,9a23.53,23.53,0,0,1,4.16,8.06c4.19,13.23,1,27.57,2.21,41.4a65.81,65.81,0,0,0,11.65,32c5,7.08,5.71,16.63,5.89,25.28s-2.73,17.69-9.27,23.35-17,7-23.95,1.88c-5.74-4.26-8-11.66-9.78-18.6-3.74-14.84-6.57-30.16-5.09-45.39.85-8.79,3.13-17.38,4.71-26.06C248.21,193.86,250.25,176.53,248.12,159.68Z" transform="translate(-28.79 -0.89)" fill="#68e1fd"/><path d="M248.12,159.68c6.06,1.93,12.45,4.08,16.52,9a23.53,23.53,0,0,1,4.16,8.06c4.19,13.23,1,27.57,2.21,41.4a65.81,65.81,0,0,0,11.65,32c5,7.08,5.71,16.63,5.89,25.28s-2.73,17.69-9.27,23.35-17,7-23.95,1.88c-5.74-4.26-8-11.66-9.78-18.6-3.74-14.84-6.57-30.16-5.09-45.39.85-8.79,3.13-17.38,4.71-26.06C248.21,193.86,250.25,176.53,248.12,159.68Z" transform="translate(-28.79 -0.89)" fill="url(#linear-gradient-2)"/><path d="M262.85,185.94a29.35,29.35,0,0,1-5.09,24.66c-4.53,5.91-11.34,10.09-14.57,16.79-3,6.26-2.47,13.9-6.08,19.83-2.65,4.36-7.18,7.18-11.55,9.83a32.89,32.89,0,0,1-8.57,4.13c-6.85,1.77-14.46-1.29-18.92-6.78s-5.95-13-4.89-20c.54-3.62,1.72-7.11,2.59-10.66a65,65,0,0,0-3.31-40.53c-1.66-3.92-3.75-7.76-4.37-12s.59-9.07,4.21-11.32c2.27-1.41,5.07-1.58,7.74-1.62,9.13-.12,18.23.92,27.3,2,7.93.91,16.19,1.91,23.2,6C256.72,169.91,261.14,179.12,262.85,185.94Z" transform="translate(-28.79 -0.89)" fill="#68e1fd"/><path d="M262.85,185.94a29.35,29.35,0,0,1-5.09,24.66c-4.53,5.91-11.34,10.09-14.57,16.79-3,6.26-2.47,13.9-6.08,19.83-2.65,4.36-7.18,7.18-11.55,9.83a32.89,32.89,0,0,1-8.57,4.13c-6.85,1.77-14.46-1.29-18.92-6.78s-5.95-13-4.89-20c.54-3.62,1.72-7.11,2.59-10.66a65,65,0,0,0-3.31-40.53c-1.66-3.92-3.75-7.76-4.37-12s.59-9.07,4.21-11.32c2.27-1.41,5.07-1.58,7.74-1.62,9.13-.12,18.23.92,27.3,2,7.93.91,16.19,1.91,23.2,6C256.72,169.91,261.14,179.12,262.85,185.94Z" transform="translate(-28.79 -0.89)" fill="url(#linear-gradient-3)"/><path d="M226.79,150.67c-.22,2.76-2.51,5-5.08,6s-5.43,1.05-8.2,1.06c-2.93,0-8.5-1.37-11.17-.2s-1.66,4.83-.91,7.73a23.06,23.06,0,0,0,12.23,15,45,45,0,0,0,9.63,2.85l20.23,4.36c3.94.85,8,2.46,11-.76s3.3-8.24,2-12.17c-1.65-4.85-5.11-8.9-6.93-13.69-2.18-5.75-6.35-9.79-3.3-28.7.42-2.59-5.72,6.9-8.3,7.37a7.43,7.43,0,0,0-3.65,2.23C231.61,144.37,227.09,147,226.79,150.67Z" transform="translate(-28.79 -0.89)" fill="url(#linear-gradient-4)"/><path d="M202.86,116.41a78.89,78.89,0,0,0,4.75,17.91,40.58,40.58,0,0,0,10.48,15.14c2.73,2.37,6.16,4.36,9.76,4a12.89,12.89,0,0,0,5.39-2.12c8.13-5.12,13-14.17,15.66-23.41,2.66-.45,4.62-2.74,5.92-5.11,1.6-2.9,2.57-6.4,1.45-9.52a4.3,4.3,0,0,0-1.38-2,4,4,0,0,0-3.67-.29,11.48,11.48,0,0,0-3.18,2.1c-2.68-4.23-5.44-8.56-9.42-11.61a24,24,0,0,0-13.68-4.7,32,32,0,0,0-14.25,3c-2.72,1.24-6.72,3.24-8.22,6S202.39,113.48,202.86,116.41Z" transform="translate(-28.79 -0.89)" fill="url(#linear-gradient-5)"/><path d="M197.36,158c-22.83,3-44.36,12.64-63.82,24.94-6.42,4-13.06,8.94-15.25,16.2a27.51,27.51,0,0,0-.89,8.54c.17,7.73,1.7,15.62,5.79,22.2s11,11.66,18.73,12.24c4.33.33,9-.69,12.87,1.19,1.88.91,3.5,2.45,5.55,2.81,3.94.7,7.27-3.35,7.94-7.3s-.33-8,0-12c.21-2.7,1-5.32,1.35-8s.16-5.59-1.39-7.8c-1.67-2.37-4.69-3.64-6-6.22,10.66-7.2,23.81-11.24,32-21.13,1.26-1.51,2.44-3.36,2.14-5.31-.43-2.8-3.78-5-3-7.71C194.74,166.19,194.4,161.59,197.36,158Z" transform="translate(-28.79 -0.89)" fill="#68e1fd"/><path d="M196.41,178.36c.3,1.95-.88,3.81-2.14,5.32-8.23,9.9-21.38,13.93-32,21.12,1.31,2.59,4.32,3.86,6,6.23,1.56,2.21,1.74,5.11,1.4,7.8s-1.15,5.29-1.36,8c-.29,3.82.59,7.67.1,11.44,0,.19,0,.37-.07.55-.68,3.95-4,8-7.95,7.3-2.05-.36-3.67-1.9-5.55-2.81-3.91-1.88-8.54-.87-12.88-1.18-7.7-.59-14.63-5.68-18.71-12.26s-5.63-14.46-5.8-22.2a27.18,27.18,0,0,1,.89-8.53c2.18-7.26,8.83-12.16,15.24-16.2,19.48-12.3,41-22,63.82-24.94-2.74,3.35-2.65,7.55-3.67,11.71-.08.32-.16.64-.25,1C192.63,173.38,196,175.57,196.41,178.36Z" transform="translate(-28.79 -0.89)" fill="url(#linear-gradient-6)"/><path d="M275.31,330.05c1-2.87.89-6,.78-9,3.53,4.58,9.36,6.9,15.11,7.43s11.52-.52,17.2-1.56c.44-.93-.82-1.72-1.82-2l-9.19-2.41a7.25,7.25,0,0,0,5.58-1.12l-8-2.28,4.69-2.05a38.38,38.38,0,0,1-14.33-5.33,20.93,20.93,0,0,1-7.1-6.74c-1.11-1.87-1.9-4.11-3.76-5.26-2.09-1.3-6.75-.61-8.07,1.77-1.17,2.12.49,5.25,1.14,7.41A179,179,0,0,0,275.31,330.05Z" transform="translate(-28.79 -0.89)" fill="url(#linear-gradient-7)"/><path d="M116.93,338a15,15,0,0,0-.28,15c-8.42,7.51-9.75,21.69-2.87,30.63,6.71,8.72,19.2,11.4,29.94,9s20.05-9,28.48-16.05c11.22-9.41,21.8-20.42,26.65-34.24,3.58-10.2,3.79-21.23,3.73-32q-.06-13.19-.58-26.37c-.09-2.42-1.32-5.74-3.66-5.11-4.63,10.79-8,22.12-13.36,32.58s-13,20.27-23.63,25.25a31.11,31.11,0,0,1-25.23.7C128.48,334,123.61,327.14,116.93,338Z" transform="translate(-28.79 -0.89)" fill="#68e1fd"/><path d="M214.18,279.78a3.52,3.52,0,0,1,1.76-1.41c2.07-.54,3.35,2.17,3.78,4.26,3.56,17.7,8.69,35.33,18.06,50.75s23.38,28.58,40.54,34.16a12.25,12.25,0,0,1,3.71,1.64c2.39,1.84,2.85,5.44,1.75,8.25a12.7,12.7,0,0,0-1,2.87,9.86,9.86,0,0,0,.83,4.27c1.49,4.8.85,10.54-2.7,14.1-4.18,4.2-11.24,4.25-16.56,1.65s-9.27-7.32-12.89-12c-20.28-26.2-32.7-54.18-36.79-87C213.67,293.68,208.55,287.24,214.18,279.78Z" transform="translate(-28.79 -0.89)" fill="#68e1fd"/><path d="M190.24,272.26a99.74,99.74,0,0,0,10.45,7.07,20,20,0,0,0,7,2.88,21.61,21.61,0,0,0,7.62-.64c3.92-.81,7.83-1.65,11.73-2.57a18.09,18.09,0,0,0,6.09-2.29,6.43,6.43,0,0,0,3-5.46c-.15-2.17-2.28-4.19-4.41-3.71a8.08,8.08,0,0,0-2.64,1.46c-3.93,2.69-8.85,3.41-13.59,3.9-3.15.33-6.41.57-9.43-.41-3.51-1.15-6.27-3.83-8.91-6.42-3.15-3.11-10.92-14.53-15-8.69C178.58,262.54,186.86,269.66,190.24,272.26Z" transform="translate(-28.79 -0.89)" fill="url(#linear-gradient-8)"/><path d="M193.29,262.68c-1.46.68-3.3-.15-4.74.58a9.85,9.85,0,0,0-1.49,1.19c-1.7,1.36-4.1,1.41-6.26,1.08a7.79,7.79,0,0,0-2.84-.14c-2.18.49-3.27,2.94-5.13,4.18a5.15,5.15,0,0,1-3,.86,3,3,0,0,1-2.62-1.3c-.91-1.59.49-3.46,1.79-4.75l19.65-19.45a9.2,9.2,0,0,1,3.41-2.45,1.76,1.76,0,0,1,1.06-.07,2.27,2.27,0,0,1,.81.56c2.63,2.48,6.84,6.24,3.76,9.73-1.15,1.31-2.05,2.18-2.36,4C195,258.67,195.56,261.61,193.29,262.68Z" transform="translate(-28.79 -0.89)" opacity="0.25" fill="url(#linear-gradient-9)"/><path d="M198.85,342.26c-4.85,13.82-15.43,24.83-26.65,34.24-8.44,7.07-17.74,13.66-28.48,16.05s-23.22-.28-29.94-9a20.85,20.85,0,0,1-3.58-7.27h0c-2.23-8.16.08-17.66,6.45-23.34a15,15,0,0,1,.28-15c6.68-10.8,11.55-4,19.19-.67a31.19,31.19,0,0,0,25.23-.69c10.62-5,18.29-14.81,23.63-25.26s8.73-21.79,13.37-32.59a2.17,2.17,0,0,1,2.37,1h0c.05.06.08.12.12.17a8,8,0,0,1,1.16,4c0,.1,0,.2,0,.3q.5,13,.57,26.07C202.64,321,202.42,332.07,198.85,342.26Z" transform="translate(-28.79 -0.89)" fill="url(#linear-gradient-10)"/><path d="M214.18,279.78a3.52,3.52,0,0,1,1.76-1.41c2.07-.54,3.35,2.17,3.78,4.26,3.56,17.7,8.69,35.33,18.06,50.75s23.38,28.58,40.54,34.16a12.25,12.25,0,0,1,3.71,1.64c2.39,1.84,2.85,5.44,1.75,8.25a12.7,12.7,0,0,0-1,2.87,9.86,9.86,0,0,0,.83,4.27c1.49,4.8.85,10.54-2.7,14.1-4.18,4.2-11.24,4.25-16.56,1.65s-9.27-7.32-12.89-12c-20.28-26.2-32.7-54.18-36.79-87C213.67,293.68,208.55,287.24,214.18,279.78Z" transform="translate(-28.79 -0.89)" fill="url(#linear-gradient-11)"/><path d="M230.44,114.35a1.45,1.45,0,0,0,.65-.16c1.13-.72-1-2.39-.53-3.64,2.19,2.87,6.08,4,9.69,3.79s7-1.62,10.38-3C244,106,240,97.44,232.36,93.65c-4.82-2.39-10.43-2.49-15.79-2.13-2.39.17-8.57.64-9.31,3.77-.64,2.72,3,3.69,4.87,4.84C218.19,103.82,222.4,114.74,230.44,114.35Z" transform="translate(-28.79 -0.89)" fill="#161419"/><path d="M205.36,71.58l7.54,15.07s15.23.32,24-3.2l2.57-21-7.22,11.06L225.4,59.72l-3.2,13.15L213.86,60.2l-1.6,16.19Z" transform="translate(-28.79 -0.89)" fill="#f4a324"/><path d="M248.48,119.75a3,3,0,0,0,.35-2,4.81,4.81,0,0,1,.46-2.49,2.32,2.32,0,0,1,2.05-1.29,1.18,1.18,0,0,1,.63.2,1.56,1.56,0,0,1,.46.9,10.11,10.11,0,0,1-.29,5.66,5.15,5.15,0,0,1-1.36,2.22,2.62,2.62,0,0,1-2.44.61,3.28,3.28,0,0,1-1.93-2.33C246.26,119.9,247.8,120.56,248.48,119.75Z" transform="translate(-28.79 -0.89)" fill="url(#linear-gradient-12)"/><path d="M116.65,352.91s22.19,19.28,47.84.9c0,0-15,35.48-54.72,15.82C109.77,369.63,108.13,361,116.65,352.91Z" transform="translate(-28.79 -0.89)" fill="url(#linear-gradient-13)"/><path d="M282.73,380.3s-9.67.66-25.7-16.23c0,0,12.61,19.45,26.51,23.3Z" transform="translate(-28.79 -0.89)" fill="url(#linear-gradient-14)"/><path d="M198.85,342.26c-4.85,13.82-15.43,24.83-26.65,34.24-8.44,7.07-17.74,13.66-28.48,16.05s-23.22-.28-29.94-9a20.85,20.85,0,0,1-3.58-7.27c8.28,10.94,24.31,21.12,51.72-.23,42.45-33.05,39.18-91.14,38.8-96.33h0l0-.36.15.54,1.17,4.27q.5,13,.57,26.07C202.64,321,202.42,332.07,198.85,342.26Z" transform="translate(-28.79 -0.89)" fill="url(#linear-gradient-15)"/><path d="M179.36,238.11c1.59-1.18,3.17-2.79,5.15-2.7a5.61,5.61,0,0,1,2.92,1.25,18.83,18.83,0,0,1,7.14,19.21l-3.37-5.08a8.69,8.69,0,0,1,.84,8.06,20.1,20.1,0,0,1-4.57-5.2c.27,1.49,1.25,2.75,1.79,4.17s.46,3.34-.86,4.08l-5.34-5.27c.07,1,.46,1.94.46,2.92s-.57,2.11-1.55,2.2c-1.5.14-2-1.9-3.1-3-1.46-1.46-3.91-.95-5.85-.24s-4.22,1.49-6,.37a6.45,6.45,0,0,1-2-2.76c-1.51-3.15-3.06-6.49-2.81-10,.26-3.66,2.59-6.62,6.25-6.05C172.5,240.75,175.92,240.68,179.36,238.11Z" transform="translate(-28.79 -0.89)" fill="url(#linear-gradient-16)"/><path d="M194.27,183.68c-8.23,9.9-21.38,13.93-32,21.12,1.31,2.59,4.32,3.86,6,6.23,1.56,2.21,1.74,5.11,1.4,7.8s-1.15,5.29-1.36,8c-.29,3.82.59,7.67.1,11.44a6.54,6.54,0,0,1-4.83-2c-3.4-3.64-1.43-9.71-3.33-14.31-.78-1.91-2.23-3.53-2.88-5.49-.73-2.24-.34-4.67-.23-7a1.25,1.25,0,0,0-.16-.82,1.22,1.22,0,0,0-.68-.36l-8.07-2.22a17.35,17.35,0,0,0,7.36-2l-12.93-2.24c-1.87-.32-3.85-.71-5.25-2a80.39,80.39,0,0,1,13.95-1c-.89-2.54.29-5.41,2.13-7.39,2.88-3.13,7.09-4.6,11.11-6s7.9-2.81,11.74-4.51c6.34-2.79,12.5-6.32,17.39-11.28-.08.32-.16.64-.25,1-.8,2.73,2.55,4.92,3,7.71C196.71,180.31,195.53,182.17,194.27,183.68Z" transform="translate(-28.79 -0.89)" fill="url(#linear-gradient-17)"/><path d="M250.44,158.22c-.74,4.68-1.48,9.49-.46,14.12,1.13,5.15,4.37,9.72,5,15,.59,4.87-1.17,9.83-.44,14.69.23,1.56,1,3.34,2.57,3.57,1.21.17,2.31-.7,3.17-1.57,5.71-5.82,8.39-13.89,10.89-21.65,1.34-4.17,2.69-8.45,2.45-12.82-.28-5.08-2.68-9.77-5.15-14.22-2.63-4.76-6.33-11.57-11.71-13.71-4-1.59-3.84,1.07-4.41,4.61C251.7,150.21,251.08,154.22,250.44,158.22Z" transform="translate(-28.79 -0.89)" fill="#161419"/></svg>